<?xml version="1.0" encoding="utf-8"?>
<!-- Generator: Adobe Illustrator 16.0.0, SVG Export Plug-In . SVG Version: 6.00 Build 0)  -->
<!DOCTYPE svg PUBLIC "-//W3C//DTD SVG 1.1//EN" "http://www.w3.org/Graphics/SVG/1.1/DTD/svg11.dtd">
<svg version="1.1" id="Layer_1" xmlns="http://www.w3.org/2000/svg" xmlns:xlink="http://www.w3.org/1999/xlink" x="0px" y="0px"
	 width="500px" height="560px" viewBox="0 0 500 560" enable-background="new 0 0 500 560" xml:space="preserve">
<g>
	
		<linearGradient id="SVGID_1_" gradientUnits="userSpaceOnUse" x1="229.708" y1="331.7363" x2="237.4153" y2="381.2842" gradientTransform="matrix(1 3.508803e-03 -3.508803e-03 1 -146.9751 19.4956)">
		<stop  offset="0" style="stop-color:#13007C"/>
		<stop  offset="0.538" style="stop-color:#185B9F"/>
		<stop  offset="0.6319" style="stop-color:#174E9A"/>
		<stop  offset="0.8043" style="stop-color:#152D8D"/>
		<stop  offset="1" style="stop-color:#13007C"/>
	</linearGradient>
	<polygon fill="url(#SVGID_1_)" points="51.7,409.3 6.1,387.4 100.8,346.7 164.9,368.6 98.3,392.5 	"/>
	
		<linearGradient id="SVGID_2_" gradientUnits="userSpaceOnUse" x1="7.7866" y1="382.2676" x2="168.8291" y2="382.2676" gradientTransform="matrix(0.9998 2.230862e-02 -2.230862e-02 0.9998 6.3022 -5.5039)">
		<stop  offset="3.518440e-02" style="stop-color:#707070"/>
		<stop  offset="0.5481" style="stop-color:#FFFFFF"/>
		<stop  offset="0.929" style="stop-color:#A8A8A8"/>
	</linearGradient>
	<path fill="url(#SVGID_2_)" d="M51.7,412.1L5.4,388.8l0-3.6l0-2.7l99.8-37.6l61.5,22.4l0,1.7l0,1.7L51.7,412.1z M6.2,385.6l45.6,23
		l110.4-39.7l-57-20.6L6.2,385.6z"/>
	<g>
		
			<linearGradient id="SVGID_3_" gradientUnits="userSpaceOnUse" x1="232.7373" y1="295.168" x2="256.982" y2="160.4755" gradientTransform="matrix(1 3.508803e-03 -3.508803e-03 1 -146.9751 19.4956)">
			<stop  offset="0" style="stop-color:#0E3494"/>
			<stop  offset="0.929" style="stop-color:#53BED8"/>
		</linearGradient>
		
			<linearGradient id="SVGID_4_" gradientUnits="userSpaceOnUse" x1="154.5327" y1="290.2871" x2="314.1709" y2="290.2871" gradientTransform="matrix(1 3.508803e-03 -3.508803e-03 1 -146.9751 19.4956)">
			<stop  offset="0" style="stop-color:#0D3C97"/>
			<stop  offset="0.5218" style="stop-color:#9CDAE9"/>
			<stop  offset="0.929" style="stop-color:#0BA2C7"/>
		</linearGradient>
		<path fill="url(#SVGID_3_)" stroke="url(#SVGID_4_)" stroke-width="1.3874" d="M165.4,324c0,3.1-3.2,6.3-7.5,8.3l-25.1,9L7,386.6
			c0.1-39.8,0.2-59,0.3-98.1l151-54.3c4.1,0,7.5,2.5,7.5,5.6L165.4,324z"/>
		
			<linearGradient id="SVGID_5_" gradientUnits="userSpaceOnUse" x1="-7.916" y1="366.792" x2="177.5564" y2="259.7095" gradientTransform="matrix(0.9998 2.230862e-02 -2.230862e-02 0.9998 6.3022 -5.5039)">
			<stop  offset="3.518440e-02" style="stop-color:#707070"/>
			<stop  offset="0.5481" style="stop-color:#FFFFFF"/>
			<stop  offset="0.929" style="stop-color:#A8A8A8"/>
		</linearGradient>
		<path fill="url(#SVGID_5_)" d="M5.4,388.8l0.4-101.3l152.5-54.7c5,0,9,3.3,9,7.2l-0.3,84.1c0,3.6-3.3,7.4-8.4,9.7L5.4,388.8z
			 M8.8,289.6l-0.3,94.8l148.9-53.6c3.8-1.7,6.5-4.5,6.5-6.8l0.3-84.1c0-2.2-2.6-4-5.7-4.1L8.8,289.6z"/>
	</g>
	<g>
		
			<linearGradient id="SVGID_6_" gradientUnits="userSpaceOnUse" x1="226.0059" y1="540.0664" x2="236.7811" y2="397.2933" gradientTransform="matrix(1 3.508803e-03 -3.508803e-03 1 -146.9751 19.4956)">
			<stop  offset="0" style="stop-color:#9CDAE9"/>
			<stop  offset="0.176" style="stop-color:#0BA2C7"/>
			<stop  offset="0.1984" style="stop-color:#0B97C2"/>
			<stop  offset="0.266" style="stop-color:#0C7BB5"/>
			<stop  offset="0.3424" style="stop-color:#0C64AA"/>
			<stop  offset="0.4298" style="stop-color:#0D52A1"/>
			<stop  offset="0.5349" style="stop-color:#0D459B"/>
			<stop  offset="0.6754" style="stop-color:#0D3E98"/>
			<stop  offset="1" style="stop-color:#0D3C97"/>
		</linearGradient>
		
			<linearGradient id="SVGID_7_" gradientUnits="userSpaceOnUse" x1="154.5415" y1="425.2061" x2="314.1758" y2="425.2061" gradientTransform="matrix(1 3.508803e-03 -3.508803e-03 1 -146.9751 19.4956)">
			<stop  offset="0" style="stop-color:#0D3C97"/>
			<stop  offset="0.5218" style="stop-color:#9CDAE9"/>
			<stop  offset="0.929" style="stop-color:#0BA2C7"/>
		</linearGradient>
		<path fill="url(#SVGID_6_)" stroke="url(#SVGID_7_)" stroke-width="1.3874" d="M6.8,432c0-3.1,3.2-6.3,7.5-8.3l86.1-31l64.8-23.3
			c-0.1,39.8-0.2,59-0.3,98L14,521.8c-4.1,0-7.4-2.6-7.4-5.7L6.8,432z"/>
		
			<linearGradient id="SVGID_8_" gradientUnits="userSpaceOnUse" x1="8.7246" y1="448.8359" x2="170.6699" y2="448.8359" gradientTransform="matrix(0.9998 2.230862e-02 -2.230862e-02 0.9998 6.3022 -5.5039)">
			<stop  offset="3.518440e-02" style="stop-color:#707070"/>
			<stop  offset="0.5481" style="stop-color:#FFFFFF"/>
			<stop  offset="0.929" style="stop-color:#A8A8A8"/>
		</linearGradient>
		<path fill="url(#SVGID_8_)" d="M14.2,523.4l-0.3,0c-5,0-9-3.3-9-7.2L5.3,432c0-3.6,3.3-7.4,8.4-9.7l153.1-55.1l-0.4,101.3
			L14.2,523.4z M163.7,371.7L14.8,425.2c-3.8,1.7-6.5,4.5-6.5,6.8l-0.3,84.1c0,2.2,2.5,4,5.6,4.1l149.7-53.8L163.7,371.7z"/>
	</g>
</g>
<g>
	<g>
		
			<linearGradient id="SVGID_9_" gradientUnits="userSpaceOnUse" x1="391.9258" y1="136.1113" x2="399.6344" y2="185.6681" gradientTransform="matrix(1 -3.464422e-03 3.464422e-03 1 -148.0776 22.2681)">
			<stop  offset="0" style="stop-color:#032515"/>
			<stop  offset="0.538" style="stop-color:#36842D"/>
			<stop  offset="0.6288" style="stop-color:#2F772A"/>
			<stop  offset="0.7953" style="stop-color:#1D5621"/>
			<stop  offset="1" style="stop-color:#032515"/>
		</linearGradient>
		<polygon fill="url(#SVGID_9_)" points="214.8,214.5 169.1,192.9 263.5,151.5 327.8,173 261.3,197.4 		"/>
		
			<linearGradient id="SVGID_10_" gradientUnits="userSpaceOnUse" x1="166.2729" y1="183.6367" x2="327.3252" y2="183.6367" gradientTransform="matrix(0.9999 1.533655e-02 -1.533655e-02 0.9999 5.022 -3.7998)">
			<stop  offset="3.518440e-02" style="stop-color:#20902F"/>
			<stop  offset="0.5481" style="stop-color:#FFFFFF"/>
			<stop  offset="0.929" style="stop-color:#8FCB18"/>
		</linearGradient>
		<path fill="url(#SVGID_10_)" d="M214.9,217.3l-46.5-22.9l-0.1-3.6l0-2.7l99.6-38.3l61.7,21.9l0,1.7l0,1.7L214.9,217.3z
			 M169.1,191.2l45.7,22.7L325,173.4l-57.1-20.2L169.1,191.2z"/>
		<g>
			
				<linearGradient id="SVGID_11_" gradientUnits="userSpaceOnUse" x1="399.5957" y1="114.0386" x2="383.474" y2="24.8335" gradientTransform="matrix(1 -3.464422e-03 3.464422e-03 1 -148.0776 22.2681)">
				<stop  offset="0.4696" style="stop-color:#52AE26"/>
				<stop  offset="0.929" style="stop-color:#8FCB18"/>
			</linearGradient>
			
				<linearGradient id="SVGID_12_" gradientUnits="userSpaceOnUse" x1="316.7119" y1="94.668" x2="476.3594" y2="94.668" gradientTransform="matrix(1 -3.464422e-03 3.464422e-03 1 -148.0776 22.2681)">
				<stop  offset="3.518440e-02" style="stop-color:#20902F"/>
				<stop  offset="0.5481" style="stop-color:#FFFFFF"/>
				<stop  offset="0.929" style="stop-color:#8FCB18"/>
			</linearGradient>
			<path fill="url(#SVGID_11_)" stroke="url(#SVGID_12_)" stroke-width="1.3874" d="M327.9,128.5c0,3.1-3.1,6.4-7.4,8.3l-25,9.2
				l-125.6,46.2c-0.2-39.8-0.2-59-0.3-98l150.6-55.4c4.1,0,7.5,2.5,7.5,5.6L327.9,128.5z"/>
			
				<linearGradient id="SVGID_13_" gradientUnits="userSpaceOnUse" x1="164.4985" y1="115.8691" x2="326.4404" y2="115.8691" gradientTransform="matrix(0.9999 1.533655e-02 -1.533655e-02 0.9999 5.022 -3.7998)">
				<stop  offset="3.518440e-02" style="stop-color:#707070"/>
				<stop  offset="0.5481" style="stop-color:#FFFFFF"/>
				<stop  offset="0.929" style="stop-color:#A8A8A8"/>
			</linearGradient>
			<path fill="url(#SVGID_13_)" d="M168.4,194.3L168.1,93l152.1-55.8c5,0,9,3.2,9,7.1l0.3,84.1c0,3.6-3.3,7.4-8.3,9.7L168.4,194.3z
				 M171.1,95.1l0.3,94.8L320,135.3c3.8-1.7,6.5-4.5,6.5-6.9l-0.3-84.1c0-2.2-2.6-4-5.7-4.1L171.1,95.1z"/>
		</g>
		<g>
			
				<linearGradient id="SVGID_14_" gradientUnits="userSpaceOnUse" x1="393.9746" y1="256.0337" x2="386.9977" y2="316.7318" gradientTransform="matrix(1 -3.464422e-03 3.464422e-03 1 -148.0776 22.2681)">
				<stop  offset="0.4696" style="stop-color:#52AE26"/>
				<stop  offset="0.929" style="stop-color:#8FCB18"/>
			</linearGradient>
			
				<linearGradient id="SVGID_15_" gradientUnits="userSpaceOnUse" x1="316.71" y1="229.5557" x2="476.3662" y2="229.5557" gradientTransform="matrix(1 -3.464422e-03 3.464422e-03 1 -148.0776 22.2681)">
				<stop  offset="3.518440e-02" style="stop-color:#20902F"/>
				<stop  offset="0.5481" style="stop-color:#FFFFFF"/>
				<stop  offset="0.929" style="stop-color:#8FCB18"/>
			</linearGradient>
			<path fill="url(#SVGID_14_)" stroke="url(#SVGID_15_)" stroke-width="1.3874" d="M170.1,237.6c0-3.1,3.2-6.4,7.5-8.3l85.9-31.6
				l64.7-23.8c0.2,39.8,0.2,59,0.3,98.1l-150.6,55.3c-4.1,0-7.5-2.5-7.5-5.6L170.1,237.6z"/>
			
				<linearGradient id="SVGID_16_" gradientUnits="userSpaceOnUse" x1="167.2061" y1="250.2246" x2="329.1797" y2="250.2246" gradientTransform="matrix(0.9999 1.533655e-02 -1.533655e-02 0.9999 5.022 -3.7998)">
				<stop  offset="3.518440e-02" style="stop-color:#707070"/>
				<stop  offset="0.5481" style="stop-color:#FFFFFF"/>
				<stop  offset="0.929" style="stop-color:#A8A8A8"/>
			</linearGradient>
			<path fill="url(#SVGID_16_)" d="M178.1,328.8l-0.3,0c-5,0-9-3.2-9-7.2l-0.3-84.1c0-3.6,3.3-7.4,8.4-9.7l152.7-56.1L330,273
				L178.1,328.8z M326.6,176.1l-148.5,54.6c-3.8,1.7-6.4,4.6-6.4,6.9l0.3,84.1c0,2.2,2.6,4,5.7,4.1l149.3-54.9L326.6,176.1z"/>
		</g>
	</g>
	
		<linearGradient id="SVGID_17_" gradientUnits="userSpaceOnUse" x1="166.3247" y1="184.7588" x2="327.3252" y2="184.7588" gradientTransform="matrix(0.9999 1.533655e-02 -1.533655e-02 0.9999 5.022 -3.7998)">
		<stop  offset="3.518440e-02" style="stop-color:#707070"/>
		<stop  offset="0.5481" style="stop-color:#FFFFFF"/>
		<stop  offset="0.929" style="stop-color:#A8A8A8"/>
	</linearGradient>
	<path fill="url(#SVGID_17_)" d="M214.9,217.3l-46.4-22.9l0-3.6l0.1,0l106.1-38.7l55.1,19.6l0,1.7l0,1.7L214.9,217.3z M169.1,191.2
		l45.7,22.7L325,173.4l-50.7-18L169.1,191.2z"/>
	
		<linearGradient id="SVGID_18_" gradientUnits="userSpaceOnUse" x1="174.7114" y1="76.6602" x2="311.2787" y2="155.5073" gradientTransform="matrix(0.9999 1.533655e-02 -1.533655e-02 0.9999 5.022 -3.7998)">
		<stop  offset="0.1684" style="stop-color:#FFFFFF"/>
		<stop  offset="0.4589" style="stop-color:#A8A8A8"/>
		<stop  offset="0.9995" style="stop-color:#707070"/>
	</linearGradient>
	<path fill="url(#SVGID_18_)" d="M168.4,194.3L168.1,93l152.1-55.8c5,0,9,3.2,9,7.2l0.3,84.1c0,3.6-3.2,7.4-8.3,9.7L168.4,194.3z
		 M171.1,95.2l0.3,94.8L320,135.4c3.8-1.7,6.4-4.5,6.4-6.9l-0.3-84.1c0-2.2-2.6-4-5.7-4.1L171.1,95.2z"/>
	
		<linearGradient id="SVGID_19_" gradientUnits="userSpaceOnUse" x1="221.8447" y1="202.0884" x2="278.8555" y2="300.8339" gradientTransform="matrix(0.9999 1.533655e-02 -1.533655e-02 0.9999 5.022 -3.7998)">
		<stop  offset="0.1684" style="stop-color:#FFFFFF"/>
		<stop  offset="0.5865" style="stop-color:#707070"/>
		<stop  offset="0.929" style="stop-color:#A8A8A8"/>
	</linearGradient>
	<path fill="url(#SVGID_19_)" d="M178.1,328.8l-0.3,0c-5,0-9-3.2-9-7.2l-0.3-84.1c0-3.6,3.3-7.4,8.4-9.7l152.7-56.1L330,273
		L178.1,328.8z M326.6,176.1l-148.5,54.6c-3.8,1.7-6.4,4.6-6.4,6.9l0.3,84.1c0,2.2,2.6,4,5.7,4.1l149.3-54.9L326.6,176.1z"/>
</g>
<g>
	
		<linearGradient id="SVGID_20_" gradientUnits="userSpaceOnUse" x1="331.3613" y1="259.9526" x2="492.3955" y2="259.9526" gradientTransform="matrix(0.9998 2.230862e-02 -2.230862e-02 0.9998 6.3022 -5.5039)">
		<stop  offset="3.518440e-02" style="stop-color:#707070"/>
		<stop  offset="0.5481" style="stop-color:#FFFFFF"/>
		<stop  offset="0.929" style="stop-color:#A8A8A8"/>
	</linearGradient>
	<path fill="url(#SVGID_20_)" d="M377.9,295.9l-46.3-23.3l0-3.6l0,0L438,231.1l55,20l0,1.7l0,1.7L377.9,295.9z M332.4,269.4l45.6,23
		l110.4-39.7l-50.6-18.3L332.4,269.4z"/>
	<g>
		
			<linearGradient id="SVGID_21_" gradientUnits="userSpaceOnUse" x1="555.5459" y1="214.4189" x2="563.2535" y2="263.9695" gradientTransform="matrix(1 3.508803e-03 -3.508803e-03 1 -146.9751 19.4956)">
			<stop  offset="1.239640e-02" style="stop-color:#701201"/>
			<stop  offset="0.4614" style="stop-color:#C73200"/>
			<stop  offset="1" style="stop-color:#701201"/>
		</linearGradient>
		<polygon fill="url(#SVGID_21_)" points="377.9,293.1 332.3,271.2 427,230.5 491.2,252.4 424.5,276.4 		"/>
		
			<linearGradient id="SVGID_22_" gradientUnits="userSpaceOnUse" x1="331.3379" y1="258.8325" x2="492.3955" y2="258.8325" gradientTransform="matrix(0.9998 2.230862e-02 -2.230862e-02 0.9998 6.3022 -5.5039)">
			<stop  offset="3.518440e-02" style="stop-color:#707070"/>
			<stop  offset="0.5481" style="stop-color:#FFFFFF"/>
			<stop  offset="0.929" style="stop-color:#A8A8A8"/>
		</linearGradient>
		<path fill="url(#SVGID_22_)" d="M377.9,295.9l-46.3-23.3l0-3.6l0-2.7l99.8-37.6l61.6,22.4l0,1.7l0,1.7L377.9,295.9z M332.4,269.4
			l45.6,23l110.4-39.7l-56.9-20.6L332.4,269.4z"/>
		<g>
			
				<linearGradient id="SVGID_23_" gradientUnits="userSpaceOnUse" x1="560.4316" y1="165.3281" x2="569.8708" y2="52.0782" gradientTransform="matrix(1 3.508803e-03 -3.508803e-03 1 -146.9751 19.4956)">
				<stop  offset="8.410400e-03" style="stop-color:#E64300"/>
				<stop  offset="0.6642" style="stop-color:#F2A301"/>
				<stop  offset="1" style="stop-color:#FFFFFF"/>
			</linearGradient>
			
				<linearGradient id="SVGID_24_" gradientUnits="userSpaceOnUse" x1="480.3301" y1="172.9448" x2="639.9736" y2="172.9448" gradientTransform="matrix(1 3.508803e-03 -3.508803e-03 1 -146.9751 19.4956)">
				<stop  offset="8.410400e-03" style="stop-color:#F77200"/>
				<stop  offset="0.4104" style="stop-color:#FCC5D2"/>
				<stop  offset="0.9323" style="stop-color:#F2A301"/>
			</linearGradient>
			<path fill="url(#SVGID_23_)" stroke="url(#SVGID_24_)" stroke-width="1.3874" d="M491.6,207.9c0,3.1-3.2,6.4-7.5,8.2l-25.1,9
				l-125.9,45.3c0.1-39.8,0.2-59,0.3-98.1l151-54.3c4.1,0,7.5,2.6,7.4,5.7L491.6,207.9z"/>
			
				<linearGradient id="SVGID_25_" gradientUnits="userSpaceOnUse" x1="329.5615" y1="191.061" x2="491.501" y2="191.061" gradientTransform="matrix(0.9998 2.230862e-02 -2.230862e-02 0.9998 6.3022 -5.5039)">
				<stop  offset="3.518440e-02" style="stop-color:#707070"/>
				<stop  offset="0.5481" style="stop-color:#FFFFFF"/>
				<stop  offset="0.929" style="stop-color:#A8A8A8"/>
			</linearGradient>
			<path fill="url(#SVGID_25_)" d="M331.7,272.6l0.3-101.3l152.5-54.7c5,0,9,3.2,9,7.2l-0.3,84.1c0,3.6-3.3,7.4-8.4,9.7L331.7,272.6
				z M335.1,173.4l-0.3,94.8l148.9-53.5c3.8-1.7,6.5-4.5,6.5-6.8l0.3-84.1c0-2.2-2.5-4-5.7-4.1L335.1,173.4z"/>
		</g>
		<g>
			
				<linearGradient id="SVGID_26_" gradientUnits="userSpaceOnUse" x1="551.2061" y1="397.1299" x2="565.3612" y2="262.6555" gradientTransform="matrix(1 3.508803e-03 -3.508803e-03 1 -146.9751 19.4956)">
				<stop  offset="0" style="stop-color:#FFFFFF"/>
				<stop  offset="3.207154e-03" style="stop-color:#FFFCF7"/>
				<stop  offset="2.295313e-02" style="stop-color:#FCEBC9"/>
				<stop  offset="4.516690e-02" style="stop-color:#FADC9E"/>
				<stop  offset="6.903951e-02" style="stop-color:#F8CE78"/>
				<stop  offset="9.502844e-02" style="stop-color:#F6C258"/>
				<stop  offset="0.1238" style="stop-color:#F5B93C"/>
				<stop  offset="0.1562" style="stop-color:#F4B126"/>
				<stop  offset="0.194" style="stop-color:#F3AA15"/>
				<stop  offset="0.2409" style="stop-color:#F2A60A"/>
				<stop  offset="0.3065" style="stop-color:#F2A403"/>
				<stop  offset="0.4888" style="stop-color:#F2A301"/>
				<stop  offset="0.9916" style="stop-color:#E64300"/>
			</linearGradient>
			
				<linearGradient id="SVGID_27_" gradientUnits="userSpaceOnUse" x1="480.334" y1="307.8594" x2="639.9922" y2="307.8594" gradientTransform="matrix(1 3.508803e-03 -3.508803e-03 1 -146.9751 19.4956)">
				<stop  offset="8.410400e-03" style="stop-color:#F77200"/>
				<stop  offset="0.4104" style="stop-color:#FCC5D2"/>
				<stop  offset="0.9323" style="stop-color:#F2A301"/>
			</linearGradient>
			<path fill="url(#SVGID_26_)" stroke="url(#SVGID_27_)" stroke-width="1.3874" d="M333,315.8c0-3.1,3.2-6.3,7.5-8.2l86.1-31
				l64.8-23.3c-0.1,39.8-0.2,59-0.3,98l-151,54.3c-4.1,0-7.5-2.6-7.5-5.7L333,315.8z"/>
			
				<linearGradient id="SVGID_28_" gradientUnits="userSpaceOnUse" x1="322.6816" y1="380.2021" x2="508.1553" y2="273.1189" gradientTransform="matrix(0.9998 2.230862e-02 -2.230862e-02 0.9998 6.3022 -5.5039)">
				<stop  offset="3.518440e-02" style="stop-color:#707070"/>
				<stop  offset="0.5481" style="stop-color:#FFFFFF"/>
				<stop  offset="0.929" style="stop-color:#A8A8A8"/>
			</linearGradient>
			<path fill="url(#SVGID_28_)" d="M340.4,407.2l-0.3,0c-5,0-9-3.2-9-7.2l0.3-84.1c0-3.6,3.3-7.4,8.4-9.6L493,251.1l-0.3,101.3
				L340.4,407.2z M489.9,255.5L341,309c-3.8,1.7-6.5,4.5-6.5,6.8l-0.3,84.1c0,2.2,2.5,4,5.7,4.1l149.7-53.8L489.9,255.5z"/>
		</g>
	</g>
	
		<linearGradient id="SVGID_29_" gradientUnits="userSpaceOnUse" x1="339.7461" y1="151.8281" x2="476.3345" y2="230.6875" gradientTransform="matrix(0.9998 2.230862e-02 -2.230862e-02 0.9998 6.3022 -5.5039)">
		<stop  offset="0" style="stop-color:#FFFFFF"/>
		<stop  offset="0.4966" style="stop-color:#E8E8E8"/>
		<stop  offset="1" style="stop-color:#707070"/>
	</linearGradient>
	<path fill="url(#SVGID_29_)" d="M331.7,272.6l0.3-101.3l152.5-54.7c5,0,9,3.2,9,7.2l-0.3,84.1c0,3.6-3.3,7.4-8.4,9.7L331.7,272.6z
		 M335.1,173.4l-0.3,94.8l148.9-53.5c3.8-1.7,6.5-4.5,6.5-6.8l0.3-84.1c0-2.2-2.5-4-5.7-4.1L335.1,173.4z"/>
	
		<linearGradient id="SVGID_30_" gradientUnits="userSpaceOnUse" x1="322.6816" y1="380.2021" x2="508.1553" y2="273.1189" gradientTransform="matrix(0.9998 2.230862e-02 -2.230862e-02 0.9998 6.3022 -5.5039)">
		<stop  offset="3.518440e-02" style="stop-color:#707070"/>
		<stop  offset="0.5481" style="stop-color:#FFFFFF"/>
		<stop  offset="0.929" style="stop-color:#A8A8A8"/>
	</linearGradient>
	<path fill="url(#SVGID_30_)" d="M340.4,407.2l-0.3,0c-5,0-9-3.2-9-7.2l0.3-84.1c0-3.6,3.3-7.4,8.4-9.6L493,251.1l-0.3,101.3
		L340.4,407.2z M489.9,255.5L341,309c-3.8,1.7-6.5,4.5-6.5,6.8l-0.3,84.1c0,2.2,2.5,4,5.7,4.1l149.7-53.8L489.9,255.5z"/>
</g>
</svg>
