<?xml version="1.0" encoding="utf-8"?>
<!-- Generator: Adobe Illustrator 16.0.0, SVG Export Plug-In . SVG Version: 6.00 Build 0)  -->
<!DOCTYPE svg PUBLIC "-//W3C//DTD SVG 1.1//EN" "http://www.w3.org/Graphics/SVG/1.1/DTD/svg11.dtd">
<svg version="1.1" id="Layer_1" xmlns="http://www.w3.org/2000/svg" xmlns:xlink="http://www.w3.org/1999/xlink" x="0px" y="0px"
	 width="320px" height="55px" viewBox="0 0 320 55" enable-background="new 0 0 320 55" xml:space="preserve">
<g>
	
		<image overflow="visible" opacity="0.31" enable-background="new    " width="1404" height="304" xlink:href="C67518AFE138D6D8.png"  transform="matrix(0.2391 0 0 0.2368 -4.4697 -15.7598)">
	</image>
	
		<image overflow="visible" opacity="0.6" enable-background="new    " width="1329" height="229" xlink:href="C67518AFE138D6D9.png"  transform="matrix(0.2393 0 0 0.239 4.2905 -1.0654)">
	</image>
	
		<linearGradient id="SVGID_1_" gradientUnits="userSpaceOnUse" x1="137.4653" y1="46.4258" x2="137.4653" y2="-2.1865" gradientTransform="matrix(1 0 0 -1 24.9448 46.3594)">
		<stop  offset="0" style="stop-color:#417FEE"/>
		<stop  offset="0.3729" style="stop-color:#3975D2"/>
		<stop  offset="0.7562" style="stop-color:#336EBB"/>
		<stop  offset="1" style="stop-color:#316BB3"/>
	</linearGradient>
	<path fill="url(#SVGID_1_)" d="M5.8-0.1v39.7c0,5.5,3.5,8.9,9,8.9h274.5L319,36.3V-0.1C303.4-0.1,20.8-0.1,5.8-0.1z"/>
</g>
<g display="none">
	
		<linearGradient id="SVGID_2_" gradientUnits="userSpaceOnUse" x1="137.3599" y1="46.4062" x2="137.3599" y2="-2.1865" gradientTransform="matrix(1 0 0 -1 24.9448 46.3594)">
		<stop  offset="0" style="stop-color:#5FDD41"/>
		<stop  offset="8.019999e-02" style="stop-color:#5AD542"/>
		<stop  offset="0.4761" style="stop-color:#45B044"/>
		<stop  offset="0.7968" style="stop-color:#389945"/>
		<stop  offset="1" style="stop-color:#339146"/>
	</linearGradient>
	<path display="inline" fill="url(#SVGID_2_)" d="M5.6,0v39.7c0,5.5,3.5,8.9,9,8.9h274.7L319,36.3V0C303.4,0,20.6,0,5.6,0z"/>
</g>
<g display="none">
	
		<linearGradient id="SVGID_3_" gradientUnits="userSpaceOnUse" x1="137.3599" y1="46.5244" x2="137.3599" y2="-2.4502" gradientTransform="matrix(1 0 0 -1 24.9448 46.3594)">
		<stop  offset="0" style="stop-color:#E9AD2C"/>
		<stop  offset="3.410000e-02" style="stop-color:#E8AA2C"/>
		<stop  offset="0.4499" style="stop-color:#D98530"/>
		<stop  offset="0.7866" style="stop-color:#CF6E32"/>
		<stop  offset="1" style="stop-color:#CC6633"/>
	</linearGradient>
	<path display="inline" fill="url(#SVGID_3_)" d="M5.6-0.2v40c0,5.5,3.5,9,9,9h274.7L319,36.5V-0.2C303.4-0.2,20.6-0.2,5.6-0.2z"/>
</g>
<g>
	<path fill="#E5E5E5" d="M63.2,28.6l-5.9-2.9l0-0.4l13.5-4.9l7.1,2.5V23v0.2L63.2,28.6z M57.8,25.5l5.4,2.7l14-5.1l-6.5-2.3
		L57.8,25.5z"/>
	<path fill="#E5E5E5" d="M57.3,25.6V12.8l19.4-7c0.6,0,1.1,0.4,1.1,0.9v10.7c0,0.5-0.4,0.9-1.1,1.2L57.3,25.6z M57.7,13v12.1
		l18.9-6.9c0.5-0.2,0.8-0.6,0.8-0.9V6.6c0-0.3-0.3-0.5-0.7-0.5L57.7,13z"/>
	<path fill="#E5E5E5" d="M58.5,42.8L58.5,42.8c-0.7,0-1.2-0.4-1.2-0.9V31.1c0-0.5,0.4-0.9,1.1-1.2l19.5-7.1v12.9L58.5,42.8z
		 M77.4,23.4l-18.9,6.9c-0.5,0.2-0.8,0.6-0.8,0.9v10.7c0,0.3,0.3,0.5,0.7,0.5l19-6.9V23.4z"/>
</g>
</svg>
