<?xml version="1.0" encoding="utf-8"?>
<!-- Generator: Adobe Illustrator 16.0.0, SVG Export Plug-In . SVG Version: 6.00 Build 0)  -->
<!DOCTYPE svg PUBLIC "-//W3C//DTD SVG 1.1//EN" "http://www.w3.org/Graphics/SVG/1.1/DTD/svg11.dtd">
<svg version="1.1" id="Layer_1" xmlns="http://www.w3.org/2000/svg" xmlns:xlink="http://www.w3.org/1999/xlink" x="0px" y="0px"
	 width="183px" height="65px" viewBox="0 0 183 65" enable-background="new 0 0 183 65" xml:space="preserve">
<g>
	<g>
		<g opacity="0.9">
			<linearGradient id="SVGID_1_" gradientUnits="userSpaceOnUse" x1="17.6094" y1="27.3496" x2="18.8502" y2="35.3267">
				<stop  offset="0" style="stop-color:#13007C"/>
				<stop  offset="0.538" style="stop-color:#185B9F"/>
				<stop  offset="0.6319" style="stop-color:#174E9A"/>
				<stop  offset="0.8043" style="stop-color:#152D8D"/>
				<stop  offset="1" style="stop-color:#13007C"/>
			</linearGradient>
			<polygon fill="url(#SVGID_1_)" points="12.8,36.6 5.5,33.1 20.7,26.5 31,30 20.3,33.9 			"/>
			<linearGradient id="SVGID_2_" gradientUnits="userSpaceOnUse" x1="5.3608" y1="31.6079" x2="31.3457" y2="31.6079">
				<stop  offset="3.518440e-02" style="stop-color:#707070"/>
				<stop  offset="0.5481" style="stop-color:#FFFFFF"/>
				<stop  offset="0.929" style="stop-color:#A8A8A8"/>
			</linearGradient>
			<path fill="url(#SVGID_2_)" d="M12.8,37l-7.5-3.7l0-0.6l0-0.4l16.1-6.1l9.9,3.6V30v0.3L12.8,37z M5.5,32.8l7.4,3.7L30.6,30
				l-9.2-3.3L5.5,32.8z"/>
			<g>
				<linearGradient id="SVGID_3_" gradientUnits="userSpaceOnUse" x1="18.0977" y1="21.458" x2="22.0023" y2="-0.2343">
					<stop  offset="0" style="stop-color:#0E3494"/>
					<stop  offset="0.929" style="stop-color:#53BED8"/>
				</linearGradient>
				<linearGradient id="SVGID_4_" gradientUnits="userSpaceOnUse" x1="5.0972" y1="20.7578" x2="31.6177" y2="20.7578">
					<stop  offset="0" style="stop-color:#0D3C97"/>
					<stop  offset="0.5218" style="stop-color:#9CDAE9"/>
					<stop  offset="0.929" style="stop-color:#0BA2C7"/>
				</linearGradient>
				<path fill="url(#SVGID_3_)" stroke="url(#SVGID_4_)" stroke-width="1.0342" d="M31.1,22.8c0,0.5-0.5,1-1.2,1.3l-4,1.5L5.6,33
					c0-6.4,0-9.5,0-15.8l24.3-8.8c0.7,0,1.2,0.4,1.2,0.9V22.8z"/>
				<linearGradient id="SVGID_5_" gradientUnits="userSpaceOnUse" x1="2.9785" y1="29.1738" x2="32.9915" y2="11.8458">
					<stop  offset="3.518440e-02" style="stop-color:#707070"/>
					<stop  offset="0.5481" style="stop-color:#FFFFFF"/>
					<stop  offset="0.929" style="stop-color:#A8A8A8"/>
				</linearGradient>
				<path fill="url(#SVGID_5_)" d="M5.4,33.3V17l24.5-8.9c0.8,0,1.4,0.5,1.4,1.2v13.5c0,0.6-0.5,1.2-1.3,1.6L5.4,33.3z M5.9,17.3
					v15.3l23.9-8.7c0.6-0.3,1-0.7,1-1.1V9.2c0-0.3-0.4-0.6-0.9-0.7L5.9,17.3z"/>
			</g>
			<g>
				<linearGradient id="SVGID_6_" gradientUnits="userSpaceOnUse" x1="17.0127" y1="60.9004" x2="18.7482" y2="37.9047">
					<stop  offset="0" style="stop-color:#9CDAE9"/>
					<stop  offset="0.176" style="stop-color:#0BA2C7"/>
					<stop  offset="0.1984" style="stop-color:#0B97C2"/>
					<stop  offset="0.266" style="stop-color:#0C7BB5"/>
					<stop  offset="0.3424" style="stop-color:#0C64AA"/>
					<stop  offset="0.4298" style="stop-color:#0D52A1"/>
					<stop  offset="0.5349" style="stop-color:#0D459B"/>
					<stop  offset="0.6754" style="stop-color:#0D3E98"/>
					<stop  offset="1" style="stop-color:#0D3C97"/>
				</linearGradient>
				<linearGradient id="SVGID_7_" gradientUnits="userSpaceOnUse" x1="5.0972" y1="42.3145" x2="31.6177" y2="42.3145">
					<stop  offset="0" style="stop-color:#0D3C97"/>
					<stop  offset="0.5218" style="stop-color:#9CDAE9"/>
					<stop  offset="0.929" style="stop-color:#0BA2C7"/>
				</linearGradient>
				<path fill="url(#SVGID_6_)" stroke="url(#SVGID_7_)" stroke-width="1.0342" d="M5.6,40.3c0-0.5,0.5-1,1.2-1.3l13.9-5l10.4-3.8
					c0,6.4,0,9.5,0,15.8L6.8,54.7c-0.7,0-1.2-0.4-1.2-0.9V40.3z"/>
				<linearGradient id="SVGID_8_" gradientUnits="userSpaceOnUse" x1="5.3667" y1="42.3711" x2="31.3457" y2="42.3711">
					<stop  offset="3.518440e-02" style="stop-color:#707070"/>
					<stop  offset="0.5481" style="stop-color:#FFFFFF"/>
					<stop  offset="0.929" style="stop-color:#A8A8A8"/>
				</linearGradient>
				<path fill="url(#SVGID_8_)" d="M6.9,55L6.9,55c-0.8,0-1.5-0.5-1.5-1.2V40.3c0-0.6,0.5-1.2,1.4-1.6l24.6-9v16.3L6.9,55z
					 M30.9,30.5l-24,8.7c-0.6,0.3-1,0.7-1,1.1v13.5c0,0.4,0.4,0.6,0.9,0.7l24.1-8.8V30.5z"/>
			</g>
		</g>
		<g>
			<g>
				<linearGradient id="SVGID_9_" gradientUnits="userSpaceOnUse" x1="35.2466" y1="27.3506" x2="36.4876" y2="35.3285">
					<stop  offset="0" style="stop-color:#032515"/>
					<stop  offset="0.538" style="stop-color:#36842D"/>
					<stop  offset="0.6288" style="stop-color:#2F772A"/>
					<stop  offset="0.7953" style="stop-color:#1D5621"/>
					<stop  offset="1" style="stop-color:#032515"/>
				</linearGradient>
				<polygon fill="url(#SVGID_9_)" points="30.5,36.6 23.1,33.1 38.3,26.5 48.7,30 38,33.9 				"/>
				<linearGradient id="SVGID_10_" gradientUnits="userSpaceOnUse" x1="22.9961" y1="31.6084" x2="48.9814" y2="31.6084">
					<stop  offset="3.518440e-02" style="stop-color:#20902F"/>
					<stop  offset="0.5481" style="stop-color:#FFFFFF"/>
					<stop  offset="0.929" style="stop-color:#8FCB18"/>
				</linearGradient>
				<path fill="url(#SVGID_10_)" d="M30.5,37L23,33.3l0-0.6l0-0.4l16.1-6.1l9.9,3.6V30v0.3L30.5,37z M23.1,32.8l7.4,3.7L48.2,30
					l-9.2-3.3L23.1,32.8z"/>
				<g>
					<linearGradient id="SVGID_11_" gradientUnits="userSpaceOnUse" x1="36.4824" y1="23.791" x2="33.8863" y2="9.426">
						<stop  offset="0.4696" style="stop-color:#52AE26"/>
						<stop  offset="0.929" style="stop-color:#8FCB18"/>
					</linearGradient>
					<linearGradient id="SVGID_12_" gradientUnits="userSpaceOnUse" x1="22.7305" y1="20.7588" x2="49.251" y2="20.7588">
						<stop  offset="3.518440e-02" style="stop-color:#20902F"/>
						<stop  offset="0.5481" style="stop-color:#FFFFFF"/>
						<stop  offset="0.929" style="stop-color:#8FCB18"/>
					</linearGradient>
					<path fill="url(#SVGID_11_)" stroke="url(#SVGID_12_)" stroke-width="1.0342" d="M48.7,22.8c0,0.5-0.5,1-1.2,1.3l-4,1.5
						L23.2,33c0-6.4,0-9.5,0-15.8l24.3-8.8c0.7,0,1.2,0.4,1.2,0.9V22.8z"/>
					<linearGradient id="SVGID_13_" gradientUnits="userSpaceOnUse" x1="23.0024" y1="20.7026" x2="48.9814" y2="20.7026">
						<stop  offset="3.518440e-02" style="stop-color:#707070"/>
						<stop  offset="0.5481" style="stop-color:#FFFFFF"/>
						<stop  offset="0.929" style="stop-color:#A8A8A8"/>
					</linearGradient>
					<path fill="url(#SVGID_13_)" d="M23,33.3V17l24.5-8.9c0.8,0,1.4,0.5,1.4,1.2v13.5c0,0.6-0.5,1.2-1.4,1.6L23,33.3z M23.5,17.3
						v15.3l24-8.7c0.6-0.3,1-0.7,1-1.1V9.2c0-0.3-0.4-0.6-0.9-0.7L23.5,17.3z"/>
				</g>
				<g>
					<linearGradient id="SVGID_14_" gradientUnits="userSpaceOnUse" x1="35.5767" y1="46.665" x2="34.453" y2="56.4408">
						<stop  offset="0.4696" style="stop-color:#52AE26"/>
						<stop  offset="0.929" style="stop-color:#8FCB18"/>
					</linearGradient>
					<linearGradient id="SVGID_15_" gradientUnits="userSpaceOnUse" x1="22.7305" y1="42.3145" x2="49.251" y2="42.3145">
						<stop  offset="3.518440e-02" style="stop-color:#20902F"/>
						<stop  offset="0.5481" style="stop-color:#FFFFFF"/>
						<stop  offset="0.929" style="stop-color:#8FCB18"/>
					</linearGradient>
					<path fill="url(#SVGID_14_)" stroke="url(#SVGID_15_)" stroke-width="1.0342" d="M23.2,40.3c0-0.5,0.5-1,1.2-1.3l13.9-5
						l10.4-3.8c0,6.4,0,9.5,0,15.8l-24.3,8.8c-0.7,0-1.2-0.4-1.2-0.9V40.3z"/>
					<linearGradient id="SVGID_16_" gradientUnits="userSpaceOnUse" x1="23.0024" y1="42.3711" x2="48.9814" y2="42.3711">
						<stop  offset="3.518440e-02" style="stop-color:#707070"/>
						<stop  offset="0.5481" style="stop-color:#FFFFFF"/>
						<stop  offset="0.929" style="stop-color:#A8A8A8"/>
					</linearGradient>
					<path fill="url(#SVGID_16_)" d="M24.5,55L24.5,55c-0.8,0-1.5-0.5-1.5-1.2V40.3c0-0.6,0.5-1.2,1.4-1.6l24.6-9v16.3L24.5,55z
						 M48.5,30.5l-24,8.7c-0.6,0.3-1,0.7-1,1.1v13.5c0,0.4,0.4,0.6,0.9,0.7l24.1-8.8V30.5z"/>
				</g>
			</g>
			<linearGradient id="SVGID_17_" gradientUnits="userSpaceOnUse" x1="22.9995" y1="31.8008" x2="48.9814" y2="31.8008">
				<stop  offset="3.518440e-02" style="stop-color:#707070"/>
				<stop  offset="0.5481" style="stop-color:#FFFFFF"/>
				<stop  offset="0.929" style="stop-color:#A8A8A8"/>
			</linearGradient>
			<path fill="url(#SVGID_17_)" d="M30.5,37L23,33.3l0-0.6h0l17.1-6.2l8.9,3.2V30v0.3L30.5,37z M23.1,32.8l7.4,3.7L48.2,30l-8.2-2.9
				L23.1,32.8z"/>
			<linearGradient id="SVGID_18_" gradientUnits="userSpaceOnUse" x1="24.5264" y1="14.3672" x2="46.6455" y2="27.1377">
				<stop  offset="0.1684" style="stop-color:#FFFFFF"/>
				<stop  offset="0.4589" style="stop-color:#A8A8A8"/>
				<stop  offset="0.9995" style="stop-color:#707070"/>
			</linearGradient>
			<path fill="url(#SVGID_18_)" d="M23,33.3V17l24.5-8.9c0.8,0,1.4,0.5,1.4,1.2v13.5c0,0.6-0.5,1.2-1.3,1.6L23,33.3z M23.5,17.3
				v15.3l24-8.7c0.6-0.3,1-0.7,1-1.1V9.3c0-0.4-0.4-0.6-0.9-0.7L23.5,17.3z"/>
			<linearGradient id="SVGID_19_" gradientUnits="userSpaceOnUse" x1="31.6865" y1="34.4629" x2="41.0386" y2="50.6611">
				<stop  offset="0.1684" style="stop-color:#FFFFFF"/>
				<stop  offset="0.5865" style="stop-color:#707070"/>
				<stop  offset="0.929" style="stop-color:#A8A8A8"/>
			</linearGradient>
			<path fill="url(#SVGID_19_)" d="M24.5,55L24.5,55c-0.8,0-1.5-0.5-1.5-1.2V40.3c0-0.6,0.5-1.2,1.4-1.6l24.6-9v16.3L24.5,55z
				 M48.5,30.5l-24,8.7c-0.6,0.3-1,0.7-1,1.1v13.5c0,0.4,0.4,0.6,0.9,0.7l24.1-8.8V30.5z"/>
		</g>
		<g>
			<linearGradient id="SVGID_20_" gradientUnits="userSpaceOnUse" x1="40.688" y1="31.7983" x2="66.6729" y2="31.7983">
				<stop  offset="3.518440e-02" style="stop-color:#707070"/>
				<stop  offset="0.5481" style="stop-color:#FFFFFF"/>
				<stop  offset="0.929" style="stop-color:#A8A8A8"/>
			</linearGradient>
			<path fill="url(#SVGID_20_)" d="M48.2,37l-7.5-3.7l0-0.6h0l17.1-6.2l8.9,3.2V30v0.3L48.2,37z M40.8,32.8l7.4,3.7L65.9,30
				l-8.2-2.9L40.8,32.8z"/>
			<g>
				<linearGradient id="SVGID_21_" gradientUnits="userSpaceOnUse" x1="52.9385" y1="27.3511" x2="54.1795" y2="35.329">
					<stop  offset="1.239640e-02" style="stop-color:#701201"/>
					<stop  offset="0.4614" style="stop-color:#C73200"/>
					<stop  offset="1" style="stop-color:#701201"/>
				</linearGradient>
				<polygon fill="url(#SVGID_21_)" points="48.2,36.6 40.8,33.1 56,26.5 66.4,30 55.7,33.9 				"/>
				<linearGradient id="SVGID_22_" gradientUnits="userSpaceOnUse" x1="40.688" y1="31.6084" x2="66.6729" y2="31.6084">
					<stop  offset="3.518440e-02" style="stop-color:#707070"/>
					<stop  offset="0.5481" style="stop-color:#FFFFFF"/>
					<stop  offset="0.929" style="stop-color:#A8A8A8"/>
				</linearGradient>
				<path fill="url(#SVGID_22_)" d="M48.2,37l-7.5-3.7l0-0.6l0-0.4l16.1-6.1l9.9,3.6V30v0.3L48.2,37z M40.8,32.8l7.4,3.7L65.9,30
					l-9.2-3.3L40.8,32.8z"/>
				<g>
					<linearGradient id="SVGID_23_" gradientUnits="userSpaceOnUse" x1="53.729" y1="19.4478" x2="55.2491" y2="1.2094">
						<stop  offset="8.410400e-03" style="stop-color:#E64300"/>
						<stop  offset="0.6642" style="stop-color:#F2A301"/>
						<stop  offset="1" style="stop-color:#FFFFFF"/>
					</linearGradient>
					<linearGradient id="SVGID_24_" gradientUnits="userSpaceOnUse" x1="40.4219" y1="20.7598" x2="66.9443" y2="20.7598">
						<stop  offset="8.410400e-03" style="stop-color:#F77200"/>
						<stop  offset="0.4104" style="stop-color:#FCC5D2"/>
						<stop  offset="0.9323" style="stop-color:#F2A301"/>
					</linearGradient>
					<path fill="url(#SVGID_23_)" stroke="url(#SVGID_24_)" stroke-width="1.0342" d="M66.4,22.8c0,0.5-0.5,1-1.2,1.3l-4,1.5
						L40.9,33c0-6.4,0-9.5,0-15.8l24.3-8.8c0.7,0,1.2,0.4,1.2,0.9V22.8z"/>
					<linearGradient id="SVGID_25_" gradientUnits="userSpaceOnUse" x1="40.6934" y1="20.7012" x2="66.6729" y2="20.7012">
						<stop  offset="3.518440e-02" style="stop-color:#707070"/>
						<stop  offset="0.5481" style="stop-color:#FFFFFF"/>
						<stop  offset="0.929" style="stop-color:#A8A8A8"/>
					</linearGradient>
					<path fill="url(#SVGID_25_)" d="M40.7,33.3V17l24.5-8.9c0.8,0,1.4,0.5,1.4,1.2v13.5c0,0.6-0.5,1.2-1.4,1.6L40.7,33.3z
						 M41.2,17.3v15.3l24-8.7c0.6-0.3,1-0.7,1-1.1V9.2c0-0.3-0.4-0.6-0.9-0.7L41.2,17.3z"/>
				</g>
				<g>
					<linearGradient id="SVGID_26_" gradientUnits="userSpaceOnUse" x1="52.2397" y1="56.7803" x2="54.5198" y2="35.1196">
						<stop  offset="0" style="stop-color:#FFFFFF"/>
						<stop  offset="3.207154e-03" style="stop-color:#FFFCF7"/>
						<stop  offset="2.295313e-02" style="stop-color:#FCEBC9"/>
						<stop  offset="4.516690e-02" style="stop-color:#FADC9E"/>
						<stop  offset="6.903951e-02" style="stop-color:#F8CE78"/>
						<stop  offset="9.502844e-02" style="stop-color:#F6C258"/>
						<stop  offset="0.1238" style="stop-color:#F5B93C"/>
						<stop  offset="0.1562" style="stop-color:#F4B126"/>
						<stop  offset="0.194" style="stop-color:#F3AA15"/>
						<stop  offset="0.2409" style="stop-color:#F2A60A"/>
						<stop  offset="0.3065" style="stop-color:#F2A403"/>
						<stop  offset="0.4888" style="stop-color:#F2A301"/>
						<stop  offset="0.9916" style="stop-color:#E64300"/>
					</linearGradient>
					<linearGradient id="SVGID_27_" gradientUnits="userSpaceOnUse" x1="40.4219" y1="42.3154" x2="66.9443" y2="42.3154">
						<stop  offset="8.410400e-03" style="stop-color:#F77200"/>
						<stop  offset="0.4104" style="stop-color:#FCC5D2"/>
						<stop  offset="0.9323" style="stop-color:#F2A301"/>
					</linearGradient>
					<path fill="url(#SVGID_26_)" stroke="url(#SVGID_27_)" stroke-width="1.0342" d="M40.9,40.3c0-0.5,0.5-1,1.2-1.3l13.9-5
						l10.4-3.8c0,6.4,0,9.5,0,15.8l-24.3,8.8c-0.7,0-1.2-0.4-1.2-0.9V40.3z"/>
					<linearGradient id="SVGID_28_" gradientUnits="userSpaceOnUse" x1="39.0479" y1="51.2266" x2="69.0606" y2="33.8987">
						<stop  offset="3.518440e-02" style="stop-color:#707070"/>
						<stop  offset="0.5481" style="stop-color:#FFFFFF"/>
						<stop  offset="0.929" style="stop-color:#A8A8A8"/>
					</linearGradient>
					<path fill="url(#SVGID_28_)" d="M42.2,55L42.2,55c-0.8,0-1.5-0.5-1.5-1.2V40.3c0-0.6,0.5-1.2,1.4-1.6l24.6-9v16.3L42.2,55z
						 M66.2,30.5l-24,8.7c-0.6,0.3-1,0.7-1,1.1v13.5c0,0.4,0.4,0.6,0.9,0.7l24.1-8.8V30.5z"/>
				</g>
			</g>
			<linearGradient id="SVGID_29_" gradientUnits="userSpaceOnUse" x1="42.2139" y1="14.3623" x2="64.3364" y2="27.1348">
				<stop  offset="0" style="stop-color:#FFFFFF"/>
				<stop  offset="0.4966" style="stop-color:#E8E8E8"/>
				<stop  offset="1" style="stop-color:#707070"/>
			</linearGradient>
			<path fill="url(#SVGID_29_)" d="M40.7,33.3V17l24.5-8.9c0.8,0,1.4,0.5,1.4,1.2v13.5c0,0.6-0.5,1.2-1.4,1.6L40.7,33.3z M41.2,17.3
				v15.3l24-8.7c0.6-0.3,1-0.7,1-1.1V9.2c0-0.3-0.4-0.6-0.9-0.7L41.2,17.3z"/>
			<linearGradient id="SVGID_30_" gradientUnits="userSpaceOnUse" x1="39.0479" y1="51.2266" x2="69.0606" y2="33.8987">
				<stop  offset="3.518440e-02" style="stop-color:#707070"/>
				<stop  offset="0.5481" style="stop-color:#FFFFFF"/>
				<stop  offset="0.929" style="stop-color:#A8A8A8"/>
			</linearGradient>
			<path fill="url(#SVGID_30_)" d="M42.2,55L42.2,55c-0.8,0-1.5-0.5-1.5-1.2V40.3c0-0.6,0.5-1.2,1.4-1.6l24.6-9v16.3L42.2,55z
				 M66.2,30.5l-24,8.7c-0.6,0.3-1,0.7-1,1.1v13.5c0,0.4,0.4,0.6,0.9,0.7l24.1-8.8V30.5z"/>
		</g>
	</g>
	<g>
		<g>
			
				<text transform="matrix(1 0 0 1 140.0186 52.9971)" fill="#4D4D4D" font-family="'MagistralC-Bold'" font-size="12.4493" letter-spacing="1">group</text>
		</g>
		<g>
			<g>
				<path d="M78.2,36.1h9.5c0.4,0,0.9-0.1,1.2-0.5c0.3-0.4,0.3-0.8,0.3-1.1c0-0.4-0.1-0.9-0.5-1.3c-0.3-0.2-0.7-0.4-3.1-1.1
					l-3.3-0.9c-1.8-0.5-3-1.1-3.7-2c-0.7-0.9-0.8-2-0.8-2.9s0.1-1.9,0.8-2.9c1-1.4,2.6-1.5,4.1-1.5h9.5v2.9h-9c-0.4,0-0.9,0-1.3,0.3
					c-0.4,0.4-0.5,0.8-0.5,1.2c0,0.5,0,0.9,0.5,1.3c0.5,0.4,1.7,0.7,2.1,0.9l3.6,1c2,0.6,3.4,1,4.2,1.9c0.9,0.9,1,2.2,1,3.1
					c0,2-0.8,3.1-1.4,3.6c-0.9,0.6-1.9,0.7-2.7,0.7H78.2V36.1z"/>
				<path d="M108.9,22.1c1.4,0,2.7,0.5,3.5,1.3c0.7,0.7,1.2,2.1,1.2,4v8.8c0,0.6-0.1,1.6-0.7,2.2c-0.6,0.6-1.5,0.7-2.3,0.7h-8.1
					c-0.9,0-2.1,0-3.1-0.8C98.1,37,98,34.8,98,33.6c0-1.5,0.2-3,1.4-4.1c1.1-0.9,2.2-1,3.1-1h7.3v-1.2c0-0.5-0.1-1.1-0.5-1.6
					c-0.5-0.6-1.2-0.7-1.8-0.7h-8.3v-2.9H108.9z M103.7,31.3c-0.3,0-1,0-1.4,0.6c-0.1,0.2-0.4,0.6-0.4,1.8c0,0.5,0.1,1.4,0.5,1.9
					c0.3,0.3,0.7,0.5,1.2,0.5h5.2c0.2,0,0.6,0,0.8-0.2c0.3-0.2,0.3-0.4,0.3-0.7v-3.9H103.7z"/>
				<path d="M134.1,32.6c-0.7,0.6-1.8,0.6-2.7,0.6h-6c-1.9,0-3.3-0.3-4.4-1.3c-1.4-1.2-1.7-2.9-1.7-5v-4.9h3.7v5
					c0,1.5,0.2,1.6,0.6,2.2c0.7,0.9,1.7,1.1,3,1.1h3.1c0.5,0,0.9-0.1,1.1-0.4c0.3-0.3,0.3-0.7,0.3-1v-6.9h3.7v8.1
					C135,30.8,135,31.9,134.1,32.6z"/>
				<path d="M151.2,22.1c1.4,0,2.7,0.5,3.5,1.3c0.7,0.7,1.2,2.1,1.2,4v8.8c0,0.6-0.1,1.6-0.7,2.2c-0.6,0.6-1.5,0.7-2.3,0.7h-8.1
					c-0.9,0-2.1,0-3.1-0.8c-1.4-1.2-1.5-3.4-1.5-4.6c0-1.5,0.2-3,1.4-4.1c1.1-0.9,2.2-1,3.1-1h7.3v-1.2c0-0.5-0.1-1.1-0.5-1.6
					c-0.5-0.6-1.2-0.7-1.8-0.7h-8.3v-2.9H151.2z M146,31.3c-0.3,0-1,0-1.4,0.6c-0.1,0.2-0.4,0.6-0.4,1.8c0,0.5,0.1,1.4,0.5,1.9
					c0.3,0.3,0.7,0.5,1.2,0.5h5.2c0.2,0,0.6,0,0.8-0.2c0.3-0.2,0.3-0.4,0.3-0.7v-3.9H146z"/>
				<path d="M161.7,24.7c0-0.5,0-1.3,0.5-1.8c0.7-0.8,1.8-0.8,2.6-0.8h6c1.8,0,3.4,0.2,4.7,1.4c0.9,0.8,1.7,2.1,1.7,4.4V39h-3.7V29
					c0-1.1-0.1-2.2-0.7-3c-0.5-0.7-1.3-1-2.7-1h-3.8c-0.2,0-0.4,0-0.6,0.2c-0.2,0.2-0.2,0.5-0.2,0.7V39h-3.7V24.7z"/>
			</g>
			<path d="M135,30.2v3.5c0,1.9-0.5,3.3-1.2,4c-0.8,0.8-2.1,1.3-3.5,1.3h-9.6v-2.9h8.3c0.6,0,1.3-0.1,1.8-0.7
				c0.4-0.5,0.5-1.1,0.5-1.6v-1.2"/>
		</g>
	</g>
</g>
</svg>
